<svg xmlns="http://www.w3.org/2000/svg" xmlns:xlink="http://www.w3.org/1999/xlink" width="2379" zoomAndPan="magnify" viewBox="0 0 1784.88 1784.99993" height="2379" preserveAspectRatio="xMidYMid meet" version="1.0"><defs><clipPath id="c0813ef067"><path d="M 678 572 L 1142.308594 572 L 1142.308594 1249.441406 L 678 1249.441406 Z M 678 572 " clip-rule="nonzero"/></clipPath><clipPath id="c085ffe487"><path d="M 642.089844 540 L 1139 540 L 1139 1246 L 642.089844 1246 Z M 642.089844 540 " clip-rule="nonzero"/></clipPath><clipPath id="41740f65c7"><path d="M 642.089844 535.488281 L 1106 535.488281 L 1106 1213 L 642.089844 1213 Z M 642.089844 535.488281 " clip-rule="nonzero"/></clipPath><clipPath id="942529b93f"><path d="M 642.089844 1212 L 687 1212 L 687 1249.441406 L 642.089844 1249.441406 Z M 642.089844 1212 " clip-rule="nonzero"/></clipPath><clipPath id="a76f9b9119"><path d="M 687 699 L 1073 699 L 1073 959.75 L 687 959.75 Z M 687 699 " clip-rule="nonzero"/></clipPath></defs><g clip-path="url(#c0813ef067)"><path fill="#6ce4e4" d="M 1117.226562 1249.300781 L 678.859375 1249.300781 L 678.859375 572.328125 L 1117.226562 572.328125 C 1118.058594 572.328125 1118.890625 572.367188 1119.71875 572.449219 C 1120.550781 572.53125 1121.375 572.652344 1122.191406 572.816406 C 1123.007812 572.980469 1123.816406 573.179688 1124.613281 573.421875 C 1125.410156 573.664062 1126.195312 573.945312 1126.964844 574.265625 C 1127.734375 574.582031 1128.488281 574.9375 1129.222656 575.332031 C 1129.957031 575.726562 1130.671875 576.152344 1131.367188 576.617188 C 1132.058594 577.078125 1132.726562 577.574219 1133.371094 578.105469 C 1134.015625 578.632812 1134.632812 579.191406 1135.222656 579.78125 C 1135.8125 580.371094 1136.371094 580.988281 1136.898438 581.632812 C 1137.429688 582.277344 1137.925781 582.945312 1138.386719 583.636719 C 1138.851562 584.332031 1139.277344 585.046875 1139.671875 585.78125 C 1140.066406 586.515625 1140.421875 587.269531 1140.738281 588.039062 C 1141.058594 588.808594 1141.339844 589.59375 1141.582031 590.390625 C 1141.824219 591.1875 1142.023438 591.996094 1142.1875 592.8125 C 1142.351562 593.628906 1142.472656 594.453125 1142.554688 595.285156 C 1142.636719 596.113281 1142.675781 596.945312 1142.675781 597.777344 L 1142.675781 1223.867188 C 1142.675781 1224.699219 1142.636719 1225.53125 1142.550781 1226.359375 C 1142.46875 1227.191406 1142.347656 1228.011719 1142.183594 1228.828125 C 1142.023438 1229.648438 1141.820312 1230.453125 1141.578125 1231.25 C 1141.335938 1232.046875 1141.054688 1232.832031 1140.734375 1233.601562 C 1140.414062 1234.371094 1140.058594 1235.121094 1139.664062 1235.855469 C 1139.273438 1236.59375 1138.84375 1237.304688 1138.382812 1237.996094 C 1137.917969 1238.691406 1137.421875 1239.359375 1136.894531 1240.003906 C 1136.363281 1240.644531 1135.804688 1241.261719 1135.214844 1241.851562 C 1134.625 1242.441406 1134.007812 1243 1133.367188 1243.527344 C 1132.722656 1244.054688 1132.050781 1244.550781 1131.359375 1245.015625 C 1130.667969 1245.476562 1129.953125 1245.90625 1129.21875 1246.296875 C 1128.484375 1246.691406 1127.730469 1247.046875 1126.960938 1247.363281 C 1126.191406 1247.683594 1125.40625 1247.964844 1124.609375 1248.203125 C 1123.8125 1248.445312 1123.003906 1248.648438 1122.1875 1248.8125 C 1121.371094 1248.972656 1120.546875 1249.09375 1119.71875 1249.175781 C 1118.890625 1249.257812 1118.058594 1249.300781 1117.226562 1249.300781 Z M 1117.226562 1249.300781 " fill-opacity="1" fill-rule="nonzero"/></g><g clip-path="url(#c085ffe487)"><path fill="#ffffff" d="M 1113.136719 1245.214844 L 674.785156 1245.214844 L 642.089844 1212.519531 L 674.785156 568.253906 L 1095.574219 540.542969 C 1102.464844 540.542969 1126.28125 570.992188 1130.871094 575.441406 C 1132.09375 576.625 1133.1875 577.921875 1134.148438 579.328125 C 1135.113281 580.730469 1135.925781 582.21875 1136.589844 583.789062 C 1137.253906 585.355469 1137.753906 586.976562 1138.089844 588.644531 C 1138.425781 590.316406 1138.59375 592 1138.59375 593.703125 L 1138.59375 1219.761719 C 1138.59375 1220.597656 1138.550781 1221.429688 1138.46875 1222.257812 C 1138.386719 1223.089844 1138.265625 1223.910156 1138.101562 1224.730469 C 1137.941406 1225.546875 1137.738281 1226.355469 1137.496094 1227.152344 C 1137.253906 1227.949219 1136.972656 1228.734375 1136.652344 1229.503906 C 1136.335938 1230.273438 1135.980469 1231.027344 1135.585938 1231.761719 C 1135.191406 1232.496094 1134.765625 1233.210938 1134.300781 1233.90625 C 1133.839844 1234.597656 1133.34375 1235.265625 1132.8125 1235.910156 C 1132.285156 1236.554688 1131.726562 1237.171875 1131.136719 1237.761719 C 1130.546875 1238.351562 1129.929688 1238.910156 1129.285156 1239.4375 C 1128.640625 1239.96875 1127.972656 1240.464844 1127.277344 1240.925781 C 1126.585938 1241.390625 1125.871094 1241.816406 1125.136719 1242.210938 C 1124.402344 1242.605469 1123.648438 1242.960938 1122.878906 1243.277344 C 1122.109375 1243.597656 1121.324219 1243.878906 1120.527344 1244.121094 C 1119.726562 1244.363281 1118.921875 1244.5625 1118.101562 1244.726562 C 1117.285156 1244.890625 1116.460938 1245.011719 1115.632812 1245.09375 C 1114.800781 1245.175781 1113.96875 1245.214844 1113.136719 1245.214844 Z M 1113.136719 1245.214844 " fill-opacity="1" fill-rule="nonzero"/></g><path fill="#000000" d="M 1088.617188 1221.101562 L 654.351562 1221.101562 L 654.351562 1220.28125 L 1088.617188 1220.28125 C 1089.4375 1220.28125 1090.253906 1220.238281 1091.070312 1220.160156 C 1091.886719 1220.078125 1092.695312 1219.957031 1093.5 1219.796875 C 1094.304688 1219.636719 1095.097656 1219.4375 1095.882812 1219.199219 C 1096.667969 1218.960938 1097.4375 1218.683594 1098.195312 1218.367188 C 1098.953125 1218.054688 1099.691406 1217.703125 1100.417969 1217.316406 C 1101.140625 1216.929688 1101.839844 1216.507812 1102.523438 1216.054688 C 1103.203125 1215.597656 1103.863281 1215.109375 1104.496094 1214.589844 C 1105.128906 1214.070312 1105.738281 1213.519531 1106.316406 1212.941406 C 1106.894531 1212.359375 1107.445312 1211.753906 1107.964844 1211.117188 C 1108.488281 1210.484375 1108.976562 1209.828125 1109.429688 1209.144531 C 1109.886719 1208.464844 1110.308594 1207.761719 1110.695312 1207.039062 C 1111.082031 1206.316406 1111.433594 1205.574219 1111.746094 1204.820312 C 1112.058594 1204.0625 1112.335938 1203.289062 1112.574219 1202.503906 C 1112.8125 1201.722656 1113.011719 1200.925781 1113.171875 1200.121094 C 1113.335938 1199.320312 1113.457031 1198.507812 1113.535156 1197.691406 C 1113.617188 1196.875 1113.660156 1196.058594 1113.660156 1195.238281 L 1113.660156 569.183594 L 1114.476562 569.183594 L 1114.476562 1195.238281 C 1114.472656 1196.085938 1114.433594 1196.929688 1114.347656 1197.773438 C 1114.265625 1198.617188 1114.140625 1199.453125 1113.972656 1200.28125 C 1113.808594 1201.113281 1113.601562 1201.933594 1113.355469 1202.742188 C 1113.109375 1203.554688 1112.824219 1204.347656 1112.5 1205.132812 C 1112.175781 1205.914062 1111.8125 1206.679688 1111.414062 1207.425781 C 1111.015625 1208.171875 1110.582031 1208.898438 1110.109375 1209.601562 C 1109.640625 1210.304688 1109.136719 1210.984375 1108.597656 1211.636719 C 1108.0625 1212.292969 1107.492188 1212.917969 1106.894531 1213.519531 C 1106.296875 1214.117188 1105.667969 1214.683594 1105.015625 1215.222656 C 1104.359375 1215.757812 1103.679688 1216.261719 1102.976562 1216.734375 C 1102.273438 1217.203125 1101.546875 1217.640625 1100.800781 1218.039062 C 1100.054688 1218.4375 1099.289062 1218.800781 1098.507812 1219.125 C 1097.726562 1219.449219 1096.929688 1219.734375 1096.121094 1219.980469 C 1095.308594 1220.226562 1094.488281 1220.433594 1093.660156 1220.601562 C 1092.828125 1220.765625 1091.992188 1220.890625 1091.148438 1220.976562 C 1090.308594 1221.058594 1089.460938 1221.101562 1088.617188 1221.101562 Z M 1088.617188 1221.101562 " fill-opacity="1" fill-rule="nonzero"/><path fill="#000000" d="M 1096.789062 1229.277344 L 662.527344 1229.277344 L 662.527344 1228.457031 L 1096.789062 1228.457031 C 1097.609375 1228.453125 1098.425781 1228.414062 1099.242188 1228.332031 C 1100.058594 1228.25 1100.871094 1228.128906 1101.671875 1227.96875 C 1102.476562 1227.808594 1103.273438 1227.609375 1104.054688 1227.371094 C 1104.839844 1227.132812 1105.613281 1226.855469 1106.371094 1226.542969 C 1107.125 1226.226562 1107.867188 1225.878906 1108.589844 1225.492188 C 1109.3125 1225.105469 1110.015625 1224.683594 1110.695312 1224.226562 C 1111.378906 1223.773438 1112.035156 1223.285156 1112.667969 1222.761719 C 1113.304688 1222.242188 1113.910156 1221.691406 1114.492188 1221.113281 C 1115.070312 1220.535156 1115.621094 1219.925781 1116.140625 1219.292969 C 1116.660156 1218.660156 1117.148438 1218 1117.605469 1217.320312 C 1118.058594 1216.636719 1118.480469 1215.9375 1118.867188 1215.210938 C 1119.253906 1214.488281 1119.605469 1213.75 1119.917969 1212.992188 C 1120.234375 1212.234375 1120.511719 1211.464844 1120.75 1210.679688 C 1120.988281 1209.894531 1121.1875 1209.101562 1121.347656 1208.296875 C 1121.507812 1207.492188 1121.628906 1206.683594 1121.710938 1205.867188 C 1121.789062 1205.050781 1121.832031 1204.234375 1121.832031 1203.414062 L 1121.832031 577.355469 L 1122.65625 577.355469 L 1122.65625 1203.414062 C 1122.65625 1204.257812 1122.613281 1205.105469 1122.53125 1205.945312 C 1122.445312 1206.789062 1122.320312 1207.625 1122.15625 1208.457031 C 1121.988281 1209.289062 1121.78125 1210.109375 1121.535156 1210.917969 C 1121.289062 1211.726562 1121.003906 1212.523438 1120.679688 1213.308594 C 1120.355469 1214.089844 1119.992188 1214.855469 1119.59375 1215.601562 C 1119.195312 1216.347656 1118.757812 1217.074219 1118.289062 1217.777344 C 1117.816406 1218.480469 1117.3125 1219.160156 1116.777344 1219.8125 C 1116.238281 1220.46875 1115.671875 1221.09375 1115.074219 1221.695312 C 1114.472656 1222.292969 1113.847656 1222.859375 1113.191406 1223.398438 C 1112.539062 1223.9375 1111.859375 1224.441406 1111.152344 1224.910156 C 1110.449219 1225.378906 1109.722656 1225.816406 1108.976562 1226.214844 C 1108.230469 1226.613281 1107.464844 1226.976562 1106.683594 1227.300781 C 1105.902344 1227.625 1105.105469 1227.910156 1104.296875 1228.15625 C 1103.484375 1228.402344 1102.664062 1228.609375 1101.835938 1228.773438 C 1101.003906 1228.941406 1100.167969 1229.066406 1099.324219 1229.148438 C 1098.480469 1229.234375 1097.636719 1229.273438 1096.789062 1229.277344 Z M 1096.789062 1229.277344 " fill-opacity="1" fill-rule="nonzero"/><path fill="#000000" d="M 1104.964844 1237.449219 L 669.878906 1237.449219 L 669.878906 1236.632812 L 1104.964844 1236.632812 C 1105.785156 1236.632812 1106.601562 1236.589844 1107.417969 1236.507812 C 1108.234375 1236.429688 1109.042969 1236.308594 1109.847656 1236.148438 C 1110.652344 1235.984375 1111.445312 1235.785156 1112.230469 1235.546875 C 1113.015625 1235.308594 1113.785156 1235.03125 1114.542969 1234.71875 C 1115.300781 1234.40625 1116.039062 1234.054688 1116.761719 1233.667969 C 1117.484375 1233.28125 1118.1875 1232.859375 1118.871094 1232.402344 C 1119.550781 1231.949219 1120.207031 1231.460938 1120.84375 1230.9375 C 1121.476562 1230.417969 1122.082031 1229.867188 1122.664062 1229.289062 C 1123.242188 1228.710938 1123.792969 1228.101562 1124.3125 1227.46875 C 1124.832031 1226.835938 1125.320312 1226.175781 1125.777344 1225.496094 C 1126.234375 1224.816406 1126.652344 1224.113281 1127.039062 1223.390625 C 1127.425781 1222.667969 1127.777344 1221.925781 1128.09375 1221.167969 C 1128.40625 1220.410156 1128.683594 1219.640625 1128.921875 1218.855469 C 1129.160156 1218.070312 1129.359375 1217.277344 1129.519531 1216.472656 C 1129.679688 1215.667969 1129.800781 1214.859375 1129.882812 1214.042969 C 1129.964844 1213.226562 1130.003906 1212.410156 1130.007812 1211.589844 L 1130.007812 585.53125 L 1130.824219 585.53125 L 1130.824219 1211.589844 C 1130.820312 1212.4375 1130.78125 1213.28125 1130.695312 1214.125 C 1130.613281 1214.964844 1130.488281 1215.800781 1130.320312 1216.632812 C 1130.15625 1217.464844 1129.949219 1218.28125 1129.703125 1219.09375 C 1129.457031 1219.902344 1129.171875 1220.699219 1128.847656 1221.480469 C 1128.523438 1222.261719 1128.160156 1223.027344 1127.761719 1223.773438 C 1127.359375 1224.519531 1126.925781 1225.246094 1126.457031 1225.949219 C 1125.984375 1226.652344 1125.480469 1227.332031 1124.945312 1227.988281 C 1124.40625 1228.640625 1123.839844 1229.269531 1123.238281 1229.867188 C 1122.640625 1230.464844 1122.015625 1231.03125 1121.359375 1231.570312 C 1120.707031 1232.109375 1120.027344 1232.613281 1119.324219 1233.082031 C 1118.621094 1233.550781 1117.894531 1233.988281 1117.148438 1234.386719 C 1116.402344 1234.785156 1115.636719 1235.148438 1114.855469 1235.472656 C 1114.074219 1235.796875 1113.277344 1236.082031 1112.464844 1236.328125 C 1111.65625 1236.574219 1110.835938 1236.78125 1110.007812 1236.949219 C 1109.175781 1237.113281 1108.339844 1237.238281 1107.496094 1237.320312 C 1106.65625 1237.40625 1105.808594 1237.449219 1104.964844 1237.449219 Z M 1104.964844 1237.449219 " fill-opacity="1" fill-rule="nonzero"/><g clip-path="url(#41740f65c7)"><path fill="#6ce4e4" d="M 1080.441406 1212.519531 L 642.089844 1212.519531 L 642.089844 535.558594 L 1080.441406 535.558594 C 1081.277344 535.558594 1082.109375 535.597656 1082.9375 535.679688 C 1083.765625 535.761719 1084.589844 535.886719 1085.40625 536.046875 C 1086.226562 536.210938 1087.03125 536.414062 1087.832031 536.65625 C 1088.628906 536.894531 1089.410156 537.175781 1090.183594 537.496094 C 1090.953125 537.816406 1091.703125 538.171875 1092.441406 538.5625 C 1093.175781 538.957031 1093.890625 539.382812 1094.582031 539.847656 C 1095.273438 540.3125 1095.945312 540.808594 1096.589844 541.335938 C 1097.234375 541.863281 1097.851562 542.421875 1098.4375 543.011719 C 1099.027344 543.601562 1099.585938 544.21875 1100.117188 544.863281 C 1100.644531 545.507812 1101.140625 546.175781 1101.605469 546.871094 C 1102.066406 547.5625 1102.496094 548.277344 1102.886719 549.011719 C 1103.28125 549.746094 1103.636719 550.5 1103.957031 551.269531 C 1104.273438 552.039062 1104.554688 552.824219 1104.796875 553.621094 C 1105.039062 554.417969 1105.242188 555.226562 1105.40625 556.042969 C 1105.566406 556.863281 1105.6875 557.683594 1105.769531 558.515625 C 1105.851562 559.34375 1105.894531 560.175781 1105.894531 561.007812 L 1105.894531 1187.066406 C 1105.894531 1187.898438 1105.851562 1188.730469 1105.769531 1189.558594 C 1105.6875 1190.390625 1105.566406 1191.214844 1105.40625 1192.03125 C 1105.242188 1192.847656 1105.039062 1193.65625 1104.796875 1194.453125 C 1104.554688 1195.25 1104.273438 1196.035156 1103.957031 1196.804688 C 1103.636719 1197.574219 1103.28125 1198.328125 1102.886719 1199.0625 C 1102.496094 1199.796875 1102.066406 1200.511719 1101.605469 1201.207031 C 1101.140625 1201.898438 1100.644531 1202.566406 1100.117188 1203.210938 C 1099.585938 1203.855469 1099.027344 1204.472656 1098.4375 1205.0625 C 1097.851562 1205.652344 1097.234375 1206.210938 1096.589844 1206.742188 C 1095.945312 1207.269531 1095.277344 1207.765625 1094.582031 1208.230469 C 1093.890625 1208.691406 1093.175781 1209.121094 1092.441406 1209.511719 C 1091.703125 1209.90625 1090.953125 1210.261719 1090.183594 1210.582031 C 1089.414062 1210.902344 1088.628906 1211.179688 1087.832031 1211.421875 C 1087.03125 1211.664062 1086.226562 1211.867188 1085.40625 1212.03125 C 1084.589844 1212.191406 1083.765625 1212.316406 1082.9375 1212.398438 C 1082.109375 1212.480469 1081.277344 1212.519531 1080.441406 1212.519531 Z M 1080.441406 1212.519531 " fill-opacity="1" fill-rule="nonzero"/></g><g clip-path="url(#942529b93f)"><path fill="#6ce4e4" d="M 686.425781 1249.300781 L 678.253906 1249.300781 L 642.089844 1212.515625 L 650.265625 1212.515625 Z M 686.425781 1249.300781 " fill-opacity="1" fill-rule="nonzero"/></g><path fill="#fffff7" d="M 782.628906 755.753906 C 782.820312 754.941406 783.027344 754.136719 783.25 753.339844 C 784.269531 749.679688 785.601562 746.222656 787.148438 742.960938 C 793.722656 729.039062 804.492188 718.589844 817.527344 711.449219 C 830.023438 704.609375 844.636719 700.847656 859.632812 699.933594 C 881.726562 698.578125 904.675781 703.457031 922.992188 713.859375 C 936.351562 721.441406 947.246094 731.972656 953.6875 745.105469 C 954.355469 746.476562 955.03125 747.816406 955.71875 749.117188 C 985.921875 738.292969 1011.441406 741.058594 1030.824219 751.546875 C 1060.664062 767.699219 1076.097656 802.328125 1071.761719 835.15625 C 1067.058594 870.804688 1039.199219 904.546875 980.988281 909.554688 L 980.988281 955.644531 C 980.988281 956.789062 980.382812 957.839844 979.398438 958.410156 C 978.414062 958.984375 977.199219 958.996094 976.207031 958.433594 C 912.71875 922.488281 846.753906 922.316406 778.269531 958.480469 C 777.277344 959 776.082031 958.972656 775.121094 958.390625 C 774.160156 957.808594 773.570312 956.765625 773.570312 955.644531 L 773.570312 918.167969 C 713.570312 915.71875 685.824219 874.421875 687.734375 834.21875 C 689.664062 793.585938 721.953125 753.667969 782.628906 755.753906 Z M 782.628906 755.753906 " fill-opacity="1" fill-rule="evenodd"/><g clip-path="url(#a76f9b9119)"><path fill="#000000" d="M 782.296875 755.324219 C 782.46875 754.621094 782.648438 753.925781 782.839844 753.234375 C 783.863281 749.550781 785.207031 746.070312 786.761719 742.78125 C 793.378906 728.777344 804.210938 718.265625 817.324219 711.085938 C 829.871094 704.214844 844.546875 700.433594 859.605469 699.511719 C 881.785156 698.160156 904.816406 703.050781 923.203125 713.496094 C 936.644531 721.125 947.59375 731.71875 954.078125 744.925781 C 954.679688 746.179688 955.296875 747.402344 955.925781 748.601562 C 986.113281 737.867188 1011.625 740.679688 1031.03125 751.179688 C 1061.023438 767.417969 1076.539062 802.222656 1072.191406 835.222656 C 1067.476562 870.953125 1039.625 904.808594 981.417969 909.953125 L 981.417969 955.65625 C 981.417969 956.945312 980.734375 958.140625 979.617188 958.792969 C 978.5 959.4375 977.125 959.445312 976 958.8125 C 912.640625 922.9375 846.8125 922.777344 778.46875 958.863281 C 777.34375 959.457031 775.992188 959.417969 774.902344 958.761719 C 773.8125 958.105469 773.144531 956.925781 773.144531 955.65625 L 773.144531 918.582031 C 713.125 915.949219 685.394531 874.519531 687.308594 834.207031 C 689.242188 793.453125 721.550781 753.394531 782.296875 755.324219 Z M 846.921875 862.621094 C 824.828125 866.308594 802.65625 873.929688 780.40625 885.429688 L 780.40625 949.699219 C 847.3125 916.101562 911.878906 916.253906 974.160156 949.515625 L 974.160156 890.167969 C 923.746094 915.242188 875.710938 898.632812 847.457031 863.160156 C 847.261719 863 847.082031 862.820312 846.921875 862.621094 Z M 1004.605469 783.441406 C 993.671875 786.28125 984.191406 785.167969 975.792969 780.914062 C 971.929688 778.957031 968.316406 776.308594 964.941406 773.039062 C 958.46875 766.777344 952.929688 758.195312 947.820312 748.011719 C 941.890625 736.082031 931.851562 726.625 919.664062 719.753906 C 902.402344 710.027344 880.832031 705.511719 860.050781 706.773438 C 846.066406 707.625 832.453125 711.109375 820.75 717.398438 C 808.855469 723.804688 798.957031 733.132812 792.761719 745.679688 C 791.300781 748.636719 790.054688 751.773438 788.992188 755.078125 C 787.980469 758.226562 787.105469 761.507812 786.484375 764.984375 C 785.492188 770.308594 785.402344 778.113281 785.984375 785.738281 C 786.605469 793.867188 787.949219 801.769531 789.894531 806.265625 C 790.183594 806.882812 789.921875 807.621094 789.304688 807.917969 C 788.683594 808.222656 787.941406 807.960938 787.636719 807.34375 C 785.226562 802.816406 783.101562 794.671875 781.800781 786.21875 C 780.558594 778.167969 780.109375 769.867188 780.746094 764.128906 C 780.808594 763.601562 780.875 763.074219 780.945312 762.550781 C 725.925781 761.304688 696.324219 797.40625 694.558594 834.550781 C 692.8125 871.355469 718.476562 908.742188 773.144531 911.316406 L 773.144531 902.742188 C 768.960938 903.644531 765.054688 903.988281 761.425781 903.625 C 758.398438 903.320312 755.550781 902.59375 752.941406 901.410156 C 749.679688 899.925781 746.757812 897.847656 744.199219 895.132812 C 741.960938 892.753906 740.023438 889.976562 738.320312 886.714844 C 737.886719 886.046875 738.066406 885.144531 738.734375 884.699219 C 739.398438 884.253906 740.296875 884.429688 740.753906 885.078125 C 742.449219 887.078125 744.230469 888.742188 746.082031 890.230469 C 748.949219 892.539062 752.023438 894.074219 755.339844 895.09375 C 757.457031 895.738281 759.671875 896.101562 762.023438 896.246094 C 765.253906 896.445312 768.730469 896.21875 772.480469 895.363281 L 773.144531 895.207031 L 773.144531 887.011719 L 771.007812 886.539062 L 770.988281 886.539062 C 763.566406 884.59375 757.152344 881.632812 751.832031 877.53125 C 748.035156 874.605469 744.761719 871.136719 742.078125 867.128906 C 738.96875 862.496094 736.609375 857.183594 734.976562 851.214844 C 733.574219 846.089844 732.734375 840.515625 732.375 834.449219 C 732.28125 833.652344 732.851562 832.929688 733.648438 832.828125 C 734.445312 832.730469 735.175781 833.289062 735.285156 834.082031 C 736.152344 838.578125 737.304688 842.71875 738.660156 846.597656 C 740.902344 852.996094 743.882812 858.464844 747.5625 863.144531 C 750.105469 866.382812 753 869.191406 756.289062 871.617188 C 760.972656 875.066406 766.4375 877.738281 772.855469 879.449219 L 775.136719 879.992188 C 797.628906 868.144531 820.042969 860.164062 842.375 856.046875 C 841.550781 854.714844 840.714844 853.261719 839.902344 851.707031 C 838.101562 848.257812 836.390625 844.265625 835.023438 839.773438 C 834.164062 836.949219 833.402344 833.941406 832.933594 830.726562 C 832.640625 828.738281 832.382812 826.6875 832.386719 824.558594 C 832.386719 821.261719 832.859375 817.957031 833.511719 814.40625 C 833.550781 813.71875 834.125 813.1875 834.8125 813.207031 C 835.5 813.222656 836.046875 813.785156 836.046875 814.472656 C 836.488281 817.859375 837.285156 820.902344 837.960938 823.949219 C 838.386719 825.859375 838.753906 827.710938 839.195312 829.503906 C 839.898438 832.371094 840.6875 835.078125 841.585938 837.605469 C 843.015625 841.617188 844.695312 845.167969 846.371094 848.273438 C 848.378906 851.996094 850.386719 855.066406 852.089844 857.410156 C 852.253906 857.546875 852.402344 857.710938 852.542969 857.886719 C 878.996094 891.71875 924.644531 907.4375 972.402344 882.921875 C 972.492188 882.867188 972.585938 882.816406 972.6875 882.769531 C 972.746094 882.738281 972.800781 882.710938 972.851562 882.6875 C 973.742188 882.226562 974.644531 881.742188 975.535156 881.253906 C 978.761719 879.386719 983.183594 876.3125 987.789062 871.53125 C 990.433594 868.785156 993.136719 865.5 995.746094 861.542969 C 998.425781 857.480469 1000.984375 852.75 1003.308594 847.191406 C 1005.257812 842.519531 1007.136719 837.378906 1008.597656 831.484375 C 1008.730469 830.753906 1009.433594 830.261719 1010.171875 830.382812 C 1010.910156 830.507812 1011.40625 831.203125 1011.292969 831.941406 C 1010.726562 838.234375 1009.765625 843.871094 1008.335938 848.9375 C 1006.570312 855.210938 1004.171875 860.550781 1001.5625 865.121094 C 998.9375 869.707031 996.027344 873.484375 993.132812 876.589844 C 988.972656 881.066406 984.828125 884.152344 981.417969 886.269531 L 981.417969 892.207031 C 985.503906 891.355469 989.011719 890.054688 992.113281 888.589844 C 994.523438 887.453125 996.683594 886.253906 998.582031 884.761719 C 1002.019531 882.0625 1004.699219 878.839844 1006.519531 874.703125 C 1006.769531 873.949219 1007.582031 873.523438 1008.347656 873.765625 C 1009.109375 874 1009.546875 874.804688 1009.320312 875.574219 C 1008.730469 878.800781 1007.703125 881.726562 1006.199219 884.453125 C 1004.640625 887.277344 1002.574219 889.769531 999.972656 891.964844 C 998.078125 893.570312 995.875 894.953125 993.394531 896.128906 C 990.242188 897.617188 986.609375 898.664062 982.5625 899.472656 L 981.417969 899.664062 L 981.417969 902.660156 C 1034.707031 897.714844 1060.65625 867.128906 1064.988281 834.269531 C 1068.960938 804.171875 1054.929688 772.371094 1027.574219 757.5625 C 1009.945312 748.023438 986.847656 745.621094 959.542969 755.023438 C 962.671875 760.160156 966.015625 764.644531 969.609375 768.390625 C 972.445312 771.351562 975.402344 773.871094 978.625 775.839844 C 985.78125 780.234375 994.039062 782.046875 1003.996094 780.5 C 1004.804688 780.347656 1005.589844 780.863281 1005.757812 781.667969 C 1005.921875 782.476562 1005.40625 783.265625 1004.605469 783.441406 Z M 1004.605469 783.441406 " fill-opacity="1" fill-rule="evenodd"/></g></svg>